<svg xmlns="http://www.w3.org/2000/svg" xmlns:xlink="http://www.w3.org/1999/xlink" width="2000" zoomAndPan="magnify" viewBox="0 0 1500 1499.999933" height="2000" preserveAspectRatio="xMidYMid meet" version="1.0"><defs><g/><clipPath id="a06f83c9e3"><rect x="0" width="1274" y="0" height="1360"/></clipPath></defs><g transform="matrix(1, 0, 0, 1, 69, 140)"><g clip-path="url(#a06f83c9e3)"><g fill="#d9b834" fill-opacity="1"><g transform="translate(2.617195, 1111.325731)"><g><path d="M 1.421875 -410.953125 C 0.472656 -463.859375 10.863281 -516.523438 32.59375 -568.953125 C 54.320312 -621.390625 84.550781 -667.445312 123.28125 -707.125 C 160.125 -744.914062 202.164062 -773.726562 249.40625 -793.5625 C 296.644531 -813.40625 345.296875 -823.328125 395.359375 -823.328125 C 400.085938 -823.328125 405.046875 -823.328125 410.234375 -823.328125 C 415.429688 -823.328125 420.394531 -823.328125 425.125 -823.328125 C 425.125 -823.328125 425.359375 -823.328125 425.828125 -823.328125 C 426.304688 -823.328125 426.546875 -823.328125 426.546875 -823.328125 C 508.734375 -823.328125 581.238281 -806.320312 644.0625 -772.3125 C 706.882812 -738.300781 756.242188 -691.0625 792.140625 -630.59375 C 828.046875 -570.132812 846 -500.226562 846 -420.875 C 846 -297.113281 807.265625 -196.5 729.796875 -119.03125 C 692.003906 -81.238281 646.890625 -52.1875 594.453125 -31.875 C 542.023438 -11.570312 485.109375 -1.421875 423.703125 -1.421875 C 365.128906 -1.421875 310.570312 -12.046875 260.03125 -33.296875 C 209.488281 -54.554688 165.085938 -83.84375 126.828125 -121.15625 C 88.566406 -158.476562 58.332031 -201.9375 36.125 -251.53125 C 13.925781 -301.125 2.359375 -354.265625 1.421875 -410.953125 Z M 419.453125 -654.6875 C 386.390625 -654.6875 354.269531 -644.054688 323.09375 -622.796875 C 291.914062 -601.546875 266.171875 -574.148438 245.859375 -540.609375 C 225.546875 -507.078125 214.921875 -471.890625 213.984375 -435.046875 C 213.035156 -394.421875 219.644531 -355.210938 233.8125 -317.421875 C 247.988281 -279.640625 269.71875 -247.992188 299 -222.484375 C 328.289062 -196.972656 364.664062 -181.859375 408.125 -177.140625 C 456.300781 -172.410156 496.921875 -179.960938 529.984375 -199.796875 C 563.046875 -219.640625 588.550781 -246.800781 606.5 -281.28125 C 624.457031 -315.769531 634.378906 -353.5625 636.265625 -394.65625 C 638.160156 -435.75 632.019531 -475.191406 617.84375 -512.984375 C 603.675781 -550.773438 581.003906 -582.660156 549.828125 -608.640625 C 518.648438 -634.617188 478.972656 -649.96875 430.796875 -654.6875 C 428.898438 -654.6875 427.007812 -654.6875 425.125 -654.6875 C 423.238281 -654.6875 421.347656 -654.6875 419.453125 -654.6875 Z M 419.453125 -654.6875 "/></g></g></g><g fill="#1b1b1b" fill-opacity="1"><g transform="translate(851.455602, 1111.325731)"><g><path d="M 408.125 -1041.546875 C 411.894531 -1035.878906 413.546875 -1028.554688 413.078125 -1019.578125 C 412.609375 -1010.609375 412.84375 -1001.398438 413.78125 -991.953125 C 414.726562 -975.890625 415.4375 -959.828125 415.90625 -943.765625 C 416.382812 -927.710938 416.625 -911.65625 416.625 -895.59375 C 417.5625 -863.46875 417.796875 -831.816406 417.328125 -800.640625 C 416.859375 -769.472656 416.625 -737.828125 416.625 -705.703125 C 415.675781 -682.085938 414.960938 -658.46875 414.484375 -634.84375 C 414.015625 -611.226562 413.78125 -587.613281 413.78125 -564 C 413.78125 -482.75 414.015625 -401.5 414.484375 -320.25 C 414.960938 -239.007812 415.203125 -157.765625 415.203125 -76.515625 C 415.203125 -68.015625 415.910156 -55.257812 417.328125 -38.25 C 418.742188 -21.25 414.257812 -10.390625 403.875 -5.671875 C 400.09375 -4.722656 395.835938 -4.007812 391.109375 -3.53125 C 386.390625 -3.0625 381.664062 -2.828125 376.9375 -2.828125 L 364.1875 -2.828125 C 357.570312 -2.828125 351.191406 -2.59375 345.046875 -2.125 C 338.910156 -1.65625 332.066406 -1.421875 324.515625 -1.421875 C 317.898438 -1.421875 311.519531 -1.421875 305.375 -1.421875 C 299.238281 -1.421875 292.863281 -1.421875 286.25 -1.421875 C 274.914062 -1.421875 264.757812 -1.65625 255.78125 -2.125 C 246.8125 -2.59375 238.070312 -3.300781 229.5625 -4.25 C 228.625 -4.25 225.789062 -4.484375 221.0625 -4.953125 C 216.34375 -5.429688 213.035156 -6.140625 211.140625 -7.078125 C 204.523438 -15.585938 201.453125 -31.648438 201.921875 -55.265625 C 202.398438 -78.878906 203.113281 -98.242188 204.0625 -113.359375 C 205 -120.921875 205.703125 -128.007812 206.171875 -134.625 C 206.648438 -141.238281 206.890625 -147.378906 206.890625 -153.046875 C 205.941406 -245.628906 205.46875 -338.921875 205.46875 -432.921875 C 205.46875 -526.921875 205.46875 -619.738281 205.46875 -711.375 L 205.46875 -734.046875 C 205.46875 -753.890625 203.816406 -773.726562 200.515625 -793.5625 C 197.210938 -813.40625 188.472656 -829.9375 174.296875 -843.15625 C 157.296875 -860.164062 134.625 -868.671875 106.28125 -868.671875 C 102.5 -868.671875 98.71875 -868.671875 94.9375 -868.671875 C 91.164062 -868.671875 86.914062 -868.195312 82.1875 -867.25 C 79.351562 -867.25 76.519531 -867.007812 73.6875 -866.53125 C 70.851562 -866.0625 68.019531 -865.828125 65.1875 -865.828125 C 54.789062 -865.828125 46.992188 -867.476562 41.796875 -870.78125 C 36.609375 -874.09375 32.597656 -876.695312 29.765625 -878.59375 C 20.316406 -888.976562 14.410156 -900.785156 12.046875 -914.015625 C 9.679688 -927.242188 8.023438 -940 7.078125 -952.28125 C 7.078125 -959.832031 5.894531 -970.457031 3.53125 -984.15625 C 1.175781 -997.851562 0.941406 -1010.609375 2.828125 -1022.421875 C 4.722656 -1034.234375 10.863281 -1040.140625 21.25 -1040.140625 C 76.988281 -1042.023438 132.019531 -1044.382812 186.34375 -1047.21875 C 240.664062 -1050.050781 295.222656 -1051.46875 350.015625 -1051.46875 C 354.742188 -1051.46875 358.992188 -1051.46875 362.765625 -1051.46875 C 366.546875 -1051.46875 370.328125 -1051.46875 374.109375 -1051.46875 L 384.03125 -1051.46875 C 397.257812 -1051.46875 405.289062 -1048.160156 408.125 -1041.546875 Z M 408.125 -1041.546875 "/></g></g></g></g></g></svg>